<svg width="372" height="710" viewBox="0 0 372 710" fill="none" xmlns="http://www.w3.org/2000/svg">
<g filter="url(#filter0_d_166_54)">
<rect x="11" y="74.9873" width="293" height="620" rx="24" fill="#D9D9D9"/>
<rect x="7.5" y="71.4873" width="300" height="627" rx="27.5" stroke="#141414" stroke-width="7"/>
</g>
<g clip-path="url(#clip0_166_54)">
<path d="M339.151 51.749C338.361 50.0595 337.158 48.4664 335.579 47.0144C334.564 46.0815 333.531 45.3325 332.631 44.7563L332.412 45.6326L330.045 55.0927L339.377 55.6721L340.233 55.7258C340.11 54.355 339.748 53.0248 339.153 51.7503L339.151 51.749ZM321.434 36.2598C319.611 35.1254 317.754 34.3921 315.917 34.0834C314.528 33.8502 313.151 33.8578 311.798 34.1063L312.078 34.9161L315.131 43.7538L323.614 38.9436L324.4 38.4978C323.606 37.7869 322.606 36.9899 321.436 36.2612L321.434 36.2598Z" fill="#FF6F00"/>
<path d="M351.946 56.7467C351.901 56.5681 351.744 56.4402 351.561 56.4282L340.233 55.7254L339.378 55.6717L330.045 55.0923L332.412 45.6322L332.632 44.7559L335.578 32.9798C335.618 32.8154 335.558 32.6421 335.422 32.5386C335.286 32.4351 335.102 32.4231 334.955 32.5059L324.395 38.4933L323.609 38.9391L315.127 43.7493L312.073 34.9116L311.793 34.1018L308.087 23.3744C308.026 23.2012 307.863 23.0853 307.677 23.0882C307.493 23.0924 307.331 23.2124 307.279 23.388L300.235 46.2732C300.468 46.3684 300.694 46.495 300.903 46.6544L331.049 69.5746C331.258 69.734 331.441 69.9179 331.595 70.1169L351.763 57.21C351.919 57.1102 351.993 56.9234 351.946 56.7467Z" fill="#FFCA28"/>
<path d="M331.595 70.1173C331.441 69.9182 331.259 69.7343 331.049 69.5749L300.905 46.656C300.695 46.4967 300.469 46.3701 300.236 46.2749C299.048 45.7927 297.638 46.1422 296.826 47.2098C295.855 48.4871 296.102 50.3179 297.381 51.2904L327.525 74.2093C328.803 75.1804 330.633 74.9327 331.606 73.6537C332.418 72.586 332.377 71.1333 331.595 70.1173Z" fill="#FFA000"/>
</g>
<defs>
<filter id="filter0_d_166_54" x="0" y="67.9873" width="315" height="642" filterUnits="userSpaceOnUse" color-interpolation-filters="sRGB">
<feFlood flood-opacity="0" result="BackgroundImageFix"/>
<feColorMatrix in="SourceAlpha" type="matrix" values="0 0 0 0 0 0 0 0 0 0 0 0 0 0 0 0 0 0 127 0" result="hardAlpha"/>
<feOffset dy="4"/>
<feGaussianBlur stdDeviation="2"/>
<feComposite in2="hardAlpha" operator="out"/>
<feColorMatrix type="matrix" values="0 0 0 0 0 0 0 0 0 0 0 0 0 0 0 0 0 0 0.25 0"/>
<feBlend mode="normal" in2="BackgroundImageFix" result="effect1_dropShadow_166_54"/>
<feBlend mode="normal" in="SourceGraphic" in2="effect1_dropShadow_166_54" result="shape"/>
</filter>
<clipPath id="clip0_166_54">
<rect width="68" height="68" fill="white" transform="translate(317.451) rotate(37.2463)"/>
</clipPath>
</defs>
</svg>
